<svg viewBox="0 0 200 200" xmlns="http://www.w3.org/2000/svg" fill="none">
  <!-- 16 lotus petals -->
  <g fill="#00d4ff">
    <ellipse cx="100" cy="13" rx="10" ry="15" transform="rotate(0 100 100)"/>
    <ellipse cx="100" cy="13" rx="10" ry="15" transform="rotate(22.5 100 100)"/>
    <ellipse cx="100" cy="13" rx="10" ry="15" transform="rotate(45 100 100)"/>
    <ellipse cx="100" cy="13" rx="10" ry="15" transform="rotate(67.5 100 100)"/>
    <ellipse cx="100" cy="13" rx="10" ry="15" transform="rotate(90 100 100)"/>
    <ellipse cx="100" cy="13" rx="10" ry="15" transform="rotate(112.5 100 100)"/>
    <ellipse cx="100" cy="13" rx="10" ry="15" transform="rotate(135 100 100)"/>
    <ellipse cx="100" cy="13" rx="10" ry="15" transform="rotate(157.5 100 100)"/>
    <ellipse cx="100" cy="13" rx="10" ry="15" transform="rotate(180 100 100)"/>
    <ellipse cx="100" cy="13" rx="10" ry="15" transform="rotate(202.5 100 100)"/>
    <ellipse cx="100" cy="13" rx="10" ry="15" transform="rotate(225 100 100)"/>
    <ellipse cx="100" cy="13" rx="10" ry="15" transform="rotate(247.5 100 100)"/>
    <ellipse cx="100" cy="13" rx="10" ry="15" transform="rotate(270 100 100)"/>
    <ellipse cx="100" cy="13" rx="10" ry="15" transform="rotate(292.5 100 100)"/>
    <ellipse cx="100" cy="13" rx="10" ry="15" transform="rotate(315 100 100)"/>
    <ellipse cx="100" cy="13" rx="10" ry="15" transform="rotate(337.5 100 100)"/>
  </g>
  <!-- Double circle -->
  <circle cx="100" cy="100" r="70" stroke="#00d4ff" stroke-width="3.5"/>
  <circle cx="100" cy="100" r="64" stroke="#00d4ff" stroke-width="1"/>
  <!-- Outer downward-pointing triangle -->
  <polygon points="48,64 152,64 100,150" stroke="#00d4ff" stroke-width="3.5"/>
  <!-- Inner downward-pointing triangle -->
  <polygon points="65,80 135,80 100,133" stroke="#00d4ff" stroke-width="2.5"/>
</svg>
